<mxfile host="www.draw.io" modified="2019-11-07T10:32:18.952Z" agent="Mozilla/5.0 (Windows NT 6.1; Win64; x64) AppleWebKit/537.36 (KHTML, like Gecko) Chrome/78.0.3904.97 Safari/537.36" etag="NZv92DdA0TX1AjI6xy5h" version="12.2.2" type="github" pages="1">
  <diagram id="K5ssQcy8KxZWnZY8tlnZ" name="第 1 页">
    <mxGraphModel dx="1886" dy="859" grid="1" gridSize="10" guides="1" tooltips="1" connect="1" arrows="1" fold="1" page="1" pageScale="1" pageWidth="1400" pageHeight="850" math="0" shadow="0">
      <root>
        <mxCell id="0"/>
        <mxCell id="1" parent="0"/>
        <mxCell id="_kDz9-TRVkqLSU2LjWo9-6" style="edgeStyle=orthogonalEdgeStyle;rounded=0;orthogonalLoop=1;jettySize=auto;html=1;exitX=1;exitY=0.5;exitDx=0;exitDy=0;entryX=0;entryY=0.5;entryDx=0;entryDy=0;" parent="1" source="_kDz9-TRVkqLSU2LjWo9-11" target="_kDz9-TRVkqLSU2LjWo9-70" edge="1">
          <mxGeometry relative="1" as="geometry">
            <mxPoint x="1270.4117647058824" y="489.82352941176464" as="targetPoint"/>
          </mxGeometry>
        </mxCell>
        <mxCell id="_kDz9-TRVkqLSU2LjWo9-57" style="edgeStyle=orthogonalEdgeStyle;rounded=0;orthogonalLoop=1;jettySize=auto;html=1;exitX=1;exitY=0.5;exitDx=0;exitDy=0;" parent="1" source="_kDz9-TRVkqLSU2LjWo9-1" target="_kDz9-TRVkqLSU2LjWo9-56" edge="1">
          <mxGeometry relative="1" as="geometry"/>
        </mxCell>
        <mxCell id="LmvMZchNnkPi5NOvrC4N-1" style="edgeStyle=orthogonalEdgeStyle;rounded=0;orthogonalLoop=1;jettySize=auto;html=1;exitX=0.5;exitY=1;exitDx=0;exitDy=0;entryX=0;entryY=0.5;entryDx=0;entryDy=0;" edge="1" parent="1" source="_kDz9-TRVkqLSU2LjWo9-1" target="_kDz9-TRVkqLSU2LjWo9-23">
          <mxGeometry relative="1" as="geometry"/>
        </mxCell>
        <mxCell id="_kDz9-TRVkqLSU2LjWo9-1" value="入账未生效" style="ellipse;whiteSpace=wrap;html=1;" parent="1" vertex="1">
          <mxGeometry x="1010" y="30" width="120" height="80" as="geometry"/>
        </mxCell>
        <mxCell id="_kDz9-TRVkqLSU2LjWo9-8" style="edgeStyle=orthogonalEdgeStyle;rounded=0;orthogonalLoop=1;jettySize=auto;html=1;exitX=1;exitY=0.5;exitDx=0;exitDy=0;entryX=0;entryY=0.5;entryDx=0;entryDy=0;" parent="1" source="_kDz9-TRVkqLSU2LjWo9-60" target="_kDz9-TRVkqLSU2LjWo9-1" edge="1">
          <mxGeometry relative="1" as="geometry">
            <mxPoint x="890.4117647058824" y="69.82352941176464" as="sourcePoint"/>
            <mxPoint x="800" y="70" as="targetPoint"/>
          </mxGeometry>
        </mxCell>
        <mxCell id="_kDz9-TRVkqLSU2LjWo9-4" value="入账生效" style="ellipse;whiteSpace=wrap;html=1;" parent="1" vertex="1">
          <mxGeometry x="1010" y="250" width="120" height="80" as="geometry"/>
        </mxCell>
        <mxCell id="_kDz9-TRVkqLSU2LjWo9-11" value="是否存在&lt;br&gt;负债" style="rhombus;whiteSpace=wrap;html=1;" parent="1" vertex="1">
          <mxGeometry x="1030" y="390" width="80" height="80" as="geometry"/>
        </mxCell>
        <mxCell id="_kDz9-TRVkqLSU2LjWo9-32" style="edgeStyle=orthogonalEdgeStyle;rounded=0;orthogonalLoop=1;jettySize=auto;html=1;exitX=0.5;exitY=1;exitDx=0;exitDy=0;entryX=0.5;entryY=0;entryDx=0;entryDy=0;" parent="1" source="_kDz9-TRVkqLSU2LjWo9-19" target="_kDz9-TRVkqLSU2LjWo9-30" edge="1">
          <mxGeometry relative="1" as="geometry"/>
        </mxCell>
        <mxCell id="_kDz9-TRVkqLSU2LjWo9-19" value="提现申请中" style="ellipse;whiteSpace=wrap;html=1;" parent="1" vertex="1">
          <mxGeometry x="590" y="570" width="120" height="80" as="geometry"/>
        </mxCell>
        <mxCell id="_kDz9-TRVkqLSU2LjWo9-21" value="冲账成功" style="ellipse;whiteSpace=wrap;html=1;" parent="1" vertex="1">
          <mxGeometry x="60" y="390" width="120" height="80" as="geometry"/>
        </mxCell>
        <mxCell id="_kDz9-TRVkqLSU2LjWo9-24" style="edgeStyle=orthogonalEdgeStyle;rounded=0;orthogonalLoop=1;jettySize=auto;html=1;exitX=0.5;exitY=1;exitDx=0;exitDy=0;entryX=1;entryY=0.5;entryDx=0;entryDy=0;" parent="1" source="_kDz9-TRVkqLSU2LjWo9-23" target="_kDz9-TRVkqLSU2LjWo9-4" edge="1">
          <mxGeometry relative="1" as="geometry"/>
        </mxCell>
        <mxCell id="_kDz9-TRVkqLSU2LjWo9-23" value="用户是否&lt;br&gt;冻结" style="rhombus;whiteSpace=wrap;html=1;" parent="1" vertex="1">
          <mxGeometry x="1230" y="140" width="80" height="80" as="geometry"/>
        </mxCell>
        <mxCell id="_kDz9-TRVkqLSU2LjWo9-27" style="edgeStyle=orthogonalEdgeStyle;rounded=0;orthogonalLoop=1;jettySize=auto;html=1;exitX=1;exitY=0.5;exitDx=0;exitDy=0;" parent="1" source="_kDz9-TRVkqLSU2LjWo9-49" target="_kDz9-TRVkqLSU2LjWo9-19" edge="1">
          <mxGeometry relative="1" as="geometry"/>
        </mxCell>
        <mxCell id="_kDz9-TRVkqLSU2LjWo9-26" value="1.查询用户退款单金额x&lt;br&gt;2.判断申请提现金额是否大于余额-x-负债金额" style="rhombus;whiteSpace=wrap;html=1;fillColor=#d5e8d4;strokeColor=#82b366;" parent="1" vertex="1">
          <mxGeometry x="260" y="570" width="80" height="80" as="geometry"/>
        </mxCell>
        <mxCell id="_kDz9-TRVkqLSU2LjWo9-42" style="edgeStyle=orthogonalEdgeStyle;rounded=0;orthogonalLoop=1;jettySize=auto;html=1;exitX=1;exitY=0.5;exitDx=0;exitDy=0;entryX=0;entryY=0.5;entryDx=0;entryDy=0;" parent="1" source="_kDz9-TRVkqLSU2LjWo9-28" target="_kDz9-TRVkqLSU2LjWo9-40" edge="1">
          <mxGeometry relative="1" as="geometry"/>
        </mxCell>
        <mxCell id="_kDz9-TRVkqLSU2LjWo9-44" style="edgeStyle=orthogonalEdgeStyle;rounded=0;orthogonalLoop=1;jettySize=auto;html=1;exitX=0.5;exitY=1;exitDx=0;exitDy=0;entryX=0.5;entryY=0;entryDx=0;entryDy=0;" parent="1" source="_kDz9-TRVkqLSU2LjWo9-28" target="_kDz9-TRVkqLSU2LjWo9-63" edge="1">
          <mxGeometry relative="1" as="geometry"/>
        </mxCell>
        <mxCell id="_kDz9-TRVkqLSU2LjWo9-28" value="确认打款" style="ellipse;whiteSpace=wrap;html=1;" parent="1" vertex="1">
          <mxGeometry x="240" y="850" width="120" height="80" as="geometry"/>
        </mxCell>
        <mxCell id="_kDz9-TRVkqLSU2LjWo9-35" style="edgeStyle=orthogonalEdgeStyle;rounded=0;orthogonalLoop=1;jettySize=auto;html=1;exitX=0.5;exitY=1;exitDx=0;exitDy=0;entryX=0.5;entryY=0;entryDx=0;entryDy=0;" parent="1" source="_kDz9-TRVkqLSU2LjWo9-38" target="_kDz9-TRVkqLSU2LjWo9-28" edge="1">
          <mxGeometry relative="1" as="geometry">
            <mxPoint x="480" y="1025" as="targetPoint"/>
          </mxGeometry>
        </mxCell>
        <mxCell id="_kDz9-TRVkqLSU2LjWo9-29" value="确认提现" style="ellipse;whiteSpace=wrap;html=1;" parent="1" vertex="1">
          <mxGeometry x="405" y="710" width="120" height="80" as="geometry"/>
        </mxCell>
        <mxCell id="_kDz9-TRVkqLSU2LjWo9-33" style="edgeStyle=orthogonalEdgeStyle;rounded=0;orthogonalLoop=1;jettySize=auto;html=1;exitX=0;exitY=0.5;exitDx=0;exitDy=0;entryX=1;entryY=0.5;entryDx=0;entryDy=0;" parent="1" source="_kDz9-TRVkqLSU2LjWo9-30" target="_kDz9-TRVkqLSU2LjWo9-29" edge="1">
          <mxGeometry relative="1" as="geometry"/>
        </mxCell>
        <mxCell id="_kDz9-TRVkqLSU2LjWo9-30" value="1.查询用户退款单金额x&lt;br&gt;2.判断申请提现金额是否大于余额-x-负债金额" style="rhombus;whiteSpace=wrap;html=1;fillColor=#d5e8d4;strokeColor=#82b366;" parent="1" vertex="1">
          <mxGeometry x="610" y="710" width="80" height="80" as="geometry"/>
        </mxCell>
        <mxCell id="_kDz9-TRVkqLSU2LjWo9-38" value="1.查询用户退款单金额x&lt;br&gt;2.判断申请提现金额是否大于余额-x-负债金额" style="rhombus;whiteSpace=wrap;html=1;fillColor=#d5e8d4;strokeColor=#82b366;" parent="1" vertex="1">
          <mxGeometry x="260" y="710" width="80" height="80" as="geometry"/>
        </mxCell>
        <mxCell id="_kDz9-TRVkqLSU2LjWo9-39" style="edgeStyle=orthogonalEdgeStyle;rounded=0;orthogonalLoop=1;jettySize=auto;html=1;exitX=0;exitY=0.5;exitDx=0;exitDy=0;entryX=1;entryY=0.5;entryDx=0;entryDy=0;" parent="1" source="_kDz9-TRVkqLSU2LjWo9-29" target="_kDz9-TRVkqLSU2LjWo9-38" edge="1">
          <mxGeometry relative="1" as="geometry">
            <mxPoint x="480" y="990" as="sourcePoint"/>
            <mxPoint x="480" y="1140" as="targetPoint"/>
          </mxGeometry>
        </mxCell>
        <mxCell id="_kDz9-TRVkqLSU2LjWo9-45" style="edgeStyle=orthogonalEdgeStyle;rounded=0;orthogonalLoop=1;jettySize=auto;html=1;exitX=0.5;exitY=1;exitDx=0;exitDy=0;entryX=1;entryY=0.5;entryDx=0;entryDy=0;" parent="1" source="_kDz9-TRVkqLSU2LjWo9-40" target="_kDz9-TRVkqLSU2LjWo9-63" edge="1">
          <mxGeometry relative="1" as="geometry"/>
        </mxCell>
        <mxCell id="_kDz9-TRVkqLSU2LjWo9-40" value="打款失败" style="ellipse;whiteSpace=wrap;html=1;" parent="1" vertex="1">
          <mxGeometry x="590" y="850" width="120" height="80" as="geometry"/>
        </mxCell>
        <mxCell id="_kDz9-TRVkqLSU2LjWo9-43" value="打款成功" style="ellipse;whiteSpace=wrap;html=1;" parent="1" vertex="1">
          <mxGeometry x="60" y="985" width="120" height="80" as="geometry"/>
        </mxCell>
        <mxCell id="_kDz9-TRVkqLSU2LjWo9-49" value="用户是否&lt;br&gt;冻结" style="rhombus;whiteSpace=wrap;html=1;" parent="1" vertex="1">
          <mxGeometry x="425" y="570" width="80" height="80" as="geometry"/>
        </mxCell>
        <mxCell id="_kDz9-TRVkqLSU2LjWo9-51" style="edgeStyle=orthogonalEdgeStyle;rounded=0;orthogonalLoop=1;jettySize=auto;html=1;exitX=1;exitY=0.5;exitDx=0;exitDy=0;" parent="1" source="_kDz9-TRVkqLSU2LjWo9-26" target="_kDz9-TRVkqLSU2LjWo9-49" edge="1">
          <mxGeometry relative="1" as="geometry">
            <mxPoint x="480.41176470588243" y="540.3529411764707" as="sourcePoint"/>
            <mxPoint x="480" y="759" as="targetPoint"/>
          </mxGeometry>
        </mxCell>
        <mxCell id="_kDz9-TRVkqLSU2LjWo9-53" value="" style="shape=flexArrow;endArrow=classic;html=1;exitX=0.5;exitY=1;exitDx=0;exitDy=0;" parent="1" source="_kDz9-TRVkqLSU2LjWo9-4" target="_kDz9-TRVkqLSU2LjWo9-11" edge="1">
          <mxGeometry width="50" height="50" relative="1" as="geometry">
            <mxPoint x="1220" y="790" as="sourcePoint"/>
            <mxPoint x="1270" y="740" as="targetPoint"/>
          </mxGeometry>
        </mxCell>
        <mxCell id="_kDz9-TRVkqLSU2LjWo9-56" value="入账失效" style="ellipse;whiteSpace=wrap;html=1;" parent="1" vertex="1">
          <mxGeometry x="1210" y="30" width="120" height="80" as="geometry"/>
        </mxCell>
        <mxCell id="_kDz9-TRVkqLSU2LjWo9-59" style="edgeStyle=orthogonalEdgeStyle;rounded=0;orthogonalLoop=1;jettySize=auto;html=1;exitX=1;exitY=0.5;exitDx=0;exitDy=0;entryX=0;entryY=0.5;entryDx=0;entryDy=0;" parent="1" source="_kDz9-TRVkqLSU2LjWo9-58" target="_kDz9-TRVkqLSU2LjWo9-26" edge="1">
          <mxGeometry relative="1" as="geometry"/>
        </mxCell>
        <mxCell id="_kDz9-TRVkqLSU2LjWo9-58" value="提现申请" style="rounded=1;whiteSpace=wrap;html=1;" parent="1" vertex="1">
          <mxGeometry x="60" y="580" width="120" height="60" as="geometry"/>
        </mxCell>
        <mxCell id="_kDz9-TRVkqLSU2LjWo9-60" value="用户入账请求" style="rounded=1;whiteSpace=wrap;html=1;" parent="1" vertex="1">
          <mxGeometry x="840" y="40" width="120" height="60" as="geometry"/>
        </mxCell>
        <mxCell id="_kDz9-TRVkqLSU2LjWo9-68" style="edgeStyle=orthogonalEdgeStyle;rounded=0;orthogonalLoop=1;jettySize=auto;html=1;exitX=0.5;exitY=1;exitDx=0;exitDy=0;entryX=0.5;entryY=0;entryDx=0;entryDy=0;" parent="1" source="_kDz9-TRVkqLSU2LjWo9-55" target="_kDz9-TRVkqLSU2LjWo9-67" edge="1">
          <mxGeometry relative="1" as="geometry"/>
        </mxCell>
        <mxCell id="_kDz9-TRVkqLSU2LjWo9-55" value="余额强制扣款流程" style="rounded=0;whiteSpace=wrap;html=1;fillColor=#dae8fc;strokeColor=#6c8ebf;" parent="1" vertex="1">
          <mxGeometry x="60" y="150" width="120" height="60" as="geometry"/>
        </mxCell>
        <mxCell id="_kDz9-TRVkqLSU2LjWo9-62" style="edgeStyle=orthogonalEdgeStyle;rounded=0;orthogonalLoop=1;jettySize=auto;html=1;entryX=0.5;entryY=0;entryDx=0;entryDy=0;exitX=0.5;exitY=1;exitDx=0;exitDy=0;" parent="1" source="_kDz9-TRVkqLSU2LjWo9-71" target="_kDz9-TRVkqLSU2LjWo9-55" edge="1">
          <mxGeometry relative="1" as="geometry">
            <mxPoint x="130" y="55" as="sourcePoint"/>
            <mxPoint x="460.2857142857147" y="294.7142857142858" as="targetPoint"/>
          </mxGeometry>
        </mxCell>
        <mxCell id="_kDz9-TRVkqLSU2LjWo9-66" style="edgeStyle=orthogonalEdgeStyle;rounded=0;orthogonalLoop=1;jettySize=auto;html=1;exitX=0;exitY=0.5;exitDx=0;exitDy=0;entryX=1;entryY=0.5;entryDx=0;entryDy=0;" parent="1" source="_kDz9-TRVkqLSU2LjWo9-63" target="_kDz9-TRVkqLSU2LjWo9-43" edge="1">
          <mxGeometry relative="1" as="geometry"/>
        </mxCell>
        <mxCell id="_kDz9-TRVkqLSU2LjWo9-63" value="1.查询用户退款单金额x&lt;br&gt;2.判断申请提现金额是否大于余额-x-负债金额" style="rhombus;whiteSpace=wrap;html=1;fillColor=#d5e8d4;strokeColor=#82b366;" parent="1" vertex="1">
          <mxGeometry x="260" y="985" width="80" height="80" as="geometry"/>
        </mxCell>
        <mxCell id="_kDz9-TRVkqLSU2LjWo9-69" style="edgeStyle=orthogonalEdgeStyle;rounded=0;orthogonalLoop=1;jettySize=auto;html=1;exitX=0.5;exitY=1;exitDx=0;exitDy=0;entryX=0.5;entryY=0;entryDx=0;entryDy=0;" parent="1" source="_kDz9-TRVkqLSU2LjWo9-67" target="_kDz9-TRVkqLSU2LjWo9-21" edge="1">
          <mxGeometry relative="1" as="geometry"/>
        </mxCell>
        <mxCell id="_kDz9-TRVkqLSU2LjWo9-67" value="记录冲账交易记录" style="rounded=0;whiteSpace=wrap;html=1;" parent="1" vertex="1">
          <mxGeometry x="60" y="262.5" width="120" height="60" as="geometry"/>
        </mxCell>
        <mxCell id="_kDz9-TRVkqLSU2LjWo9-70" value="余额强制扣款流程" style="rounded=0;whiteSpace=wrap;html=1;fillColor=#d5e8d4;strokeColor=#82b366;" parent="1" vertex="1">
          <mxGeometry x="1210" y="400" width="120" height="60" as="geometry"/>
        </mxCell>
        <mxCell id="_kDz9-TRVkqLSU2LjWo9-71" value="用户冲账请求" style="rounded=1;whiteSpace=wrap;html=1;" parent="1" vertex="1">
          <mxGeometry x="60" y="40" width="120" height="60" as="geometry"/>
        </mxCell>
        <mxCell id="_kDz9-TRVkqLSU2LjWo9-76" style="edgeStyle=orthogonalEdgeStyle;rounded=0;orthogonalLoop=1;jettySize=auto;html=1;exitX=1;exitY=0.5;exitDx=0;exitDy=0;entryX=0;entryY=0.5;entryDx=0;entryDy=0;" parent="1" source="_kDz9-TRVkqLSU2LjWo9-75" target="_kDz9-TRVkqLSU2LjWo9-4" edge="1">
          <mxGeometry relative="1" as="geometry"/>
        </mxCell>
        <mxCell id="_kDz9-TRVkqLSU2LjWo9-75" value="直接入账申请" style="rounded=1;whiteSpace=wrap;html=1;" parent="1" vertex="1">
          <mxGeometry x="845" y="260" width="120" height="60" as="geometry"/>
        </mxCell>
      </root>
    </mxGraphModel>
  </diagram>
</mxfile>
